ISO-10303-21;
HEADER;
/* Generated by software containing ST-Developer
 * from STEP Tools, Inc. (www.steptools.com) 
 */

FILE_DESCRIPTION(
/* description */ (''),
/* implementation_level */ '2;1');

FILE_NAME(
/* name */ 'Batterie v2.stp',
/* time_stamp */ '2024-02-14T21:48:18+01:00',
/* author */ (''),
/* organization */ (''),
/* preprocessor_version */ 'ST-DEVELOPER v20',
/* originating_system */ 'Autodesk Translation Framework v12.20.1.177',

/* authorisation */ '');

FILE_SCHEMA (('AUTOMOTIVE_DESIGN { 1 0 10303 214 3 1 1 }'));
ENDSEC;

DATA;
#10=MECHANICAL_DESIGN_GEOMETRIC_PRESENTATION_REPRESENTATION('',(#13),#729);
#11=SHAPE_REPRESENTATION_RELATIONSHIP('SRR','None',#736,#12);
#12=ADVANCED_BREP_SHAPE_REPRESENTATION('',(#14),#728);
#13=STYLED_ITEM('',(#745),#14);
#14=MANIFOLD_SOLID_BREP('Body1',#405);
#15=FACE_BOUND('',#141,.T.);
#16=FACE_BOUND('',#142,.T.);
#17=FACE_BOUND('',#147,.T.);
#18=FACE_BOUND('',#148,.T.);
#19=PLANE('',#463);
#20=PLANE('',#464);
#21=PLANE('',#467);
#22=PLANE('',#468);
#23=PLANE('',#469);
#24=PLANE('',#470);
#25=LINE('',#673,#51);
#26=LINE('',#674,#52);
#27=LINE('',#676,#53);
#28=LINE('',#677,#54);
#29=LINE('',#679,#55);
#30=LINE('',#680,#56);
#31=LINE('',#682,#57);
#32=LINE('',#683,#58);
#33=LINE('',#685,#59);
#34=LINE('',#686,#60);
#35=LINE('',#688,#61);
#36=LINE('',#689,#62);
#37=LINE('',#691,#63);
#38=LINE('',#692,#64);
#39=LINE('',#694,#65);
#40=LINE('',#695,#66);
#41=LINE('',#697,#67);
#42=LINE('',#698,#68);
#43=LINE('',#700,#69);
#44=LINE('',#701,#70);
#45=LINE('',#703,#71);
#46=LINE('',#704,#72);
#47=LINE('',#706,#73);
#48=LINE('',#707,#74);
#49=LINE('',#723,#75);
#50=LINE('',#725,#76);
#51=VECTOR('',#543,10.);
#52=VECTOR('',#544,10.);
#53=VECTOR('',#547,10.);
#54=VECTOR('',#548,10.);
#55=VECTOR('',#551,10.);
#56=VECTOR('',#552,10.);
#57=VECTOR('',#555,10.);
#58=VECTOR('',#556,10.);
#59=VECTOR('',#559,10.);
#60=VECTOR('',#560,10.);
#61=VECTOR('',#563,10.);
#62=VECTOR('',#564,10.);
#63=VECTOR('',#567,10.);
#64=VECTOR('',#568,10.);
#65=VECTOR('',#571,10.);
#66=VECTOR('',#572,10.);
#67=VECTOR('',#575,10.);
#68=VECTOR('',#576,10.);
#69=VECTOR('',#579,10.);
#70=VECTOR('',#580,10.);
#71=VECTOR('',#583,10.);
#72=VECTOR('',#584,10.);
#73=VECTOR('',#587,10.);
#74=VECTOR('',#588,10.);
#75=VECTOR('',#611,1.49999999999999);
#76=VECTOR('',#614,1.5);
#77=CYLINDRICAL_SURFACE('',#451,0.2);
#78=CYLINDRICAL_SURFACE('',#452,0.2);
#79=CYLINDRICAL_SURFACE('',#453,0.2);
#80=CYLINDRICAL_SURFACE('',#454,0.2);
#81=CYLINDRICAL_SURFACE('',#455,0.2);
#82=CYLINDRICAL_SURFACE('',#456,0.2);
#83=CYLINDRICAL_SURFACE('',#457,0.2);
#84=CYLINDRICAL_SURFACE('',#458,0.2);
#85=CYLINDRICAL_SURFACE('',#459,0.2);
#86=CYLINDRICAL_SURFACE('',#460,0.2);
#87=CYLINDRICAL_SURFACE('',#461,0.2);
#88=CYLINDRICAL_SURFACE('',#462,0.2);
#89=CYLINDRICAL_SURFACE('',#473,1.49999999999999);
#90=CYLINDRICAL_SURFACE('',#474,1.5);
#91=FACE_OUTER_BOUND('',#119,.T.);
#92=FACE_OUTER_BOUND('',#120,.T.);
#93=FACE_OUTER_BOUND('',#121,.T.);
#94=FACE_OUTER_BOUND('',#122,.T.);
#95=FACE_OUTER_BOUND('',#123,.T.);
#96=FACE_OUTER_BOUND('',#124,.T.);
#97=FACE_OUTER_BOUND('',#125,.T.);
#98=FACE_OUTER_BOUND('',#126,.T.);
#99=FACE_OUTER_BOUND('',#127,.T.);
#100=FACE_OUTER_BOUND('',#128,.T.);
#101=FACE_OUTER_BOUND('',#129,.T.);
#102=FACE_OUTER_BOUND('',#130,.T.);
#103=FACE_OUTER_BOUND('',#131,.T.);
#104=FACE_OUTER_BOUND('',#132,.T.);
#105=FACE_OUTER_BOUND('',#133,.T.);
#106=FACE_OUTER_BOUND('',#134,.T.);
#107=FACE_OUTER_BOUND('',#135,.T.);
#108=FACE_OUTER_BOUND('',#136,.T.);
#109=FACE_OUTER_BOUND('',#137,.T.);
#110=FACE_OUTER_BOUND('',#138,.T.);
#111=FACE_OUTER_BOUND('',#139,.T.);
#112=FACE_OUTER_BOUND('',#140,.T.);
#113=FACE_OUTER_BOUND('',#143,.T.);
#114=FACE_OUTER_BOUND('',#144,.T.);
#115=FACE_OUTER_BOUND('',#145,.T.);
#116=FACE_OUTER_BOUND('',#146,.T.);
#117=FACE_OUTER_BOUND('',#149,.T.);
#118=FACE_OUTER_BOUND('',#150,.T.);
#119=EDGE_LOOP('',(#261,#262,#263));
#120=EDGE_LOOP('',(#264,#265,#266));
#121=EDGE_LOOP('',(#267,#268,#269));
#122=EDGE_LOOP('',(#270,#271,#272));
#123=EDGE_LOOP('',(#273,#274,#275));
#124=EDGE_LOOP('',(#276,#277,#278));
#125=EDGE_LOOP('',(#279,#280,#281));
#126=EDGE_LOOP('',(#282,#283,#284));
#127=EDGE_LOOP('',(#285,#286,#287,#288));
#128=EDGE_LOOP('',(#289,#290,#291,#292));
#129=EDGE_LOOP('',(#293,#294,#295,#296));
#130=EDGE_LOOP('',(#297,#298,#299,#300));
#131=EDGE_LOOP('',(#301,#302,#303,#304));
#132=EDGE_LOOP('',(#305,#306,#307,#308));
#133=EDGE_LOOP('',(#309,#310,#311,#312));
#134=EDGE_LOOP('',(#313,#314,#315,#316));
#135=EDGE_LOOP('',(#317,#318,#319,#320));
#136=EDGE_LOOP('',(#321,#322,#323,#324));
#137=EDGE_LOOP('',(#325,#326,#327,#328));
#138=EDGE_LOOP('',(#329,#330,#331,#332));
#139=EDGE_LOOP('',(#333,#334,#335,#336));
#140=EDGE_LOOP('',(#337,#338,#339,#340));
#141=EDGE_LOOP('',(#341));
#142=EDGE_LOOP('',(#342));
#143=EDGE_LOOP('',(#343,#344,#345,#346));
#144=EDGE_LOOP('',(#347,#348,#349,#350));
#145=EDGE_LOOP('',(#351,#352,#353,#354));
#146=EDGE_LOOP('',(#355,#356,#357,#358));
#147=EDGE_LOOP('',(#359));
#148=EDGE_LOOP('',(#360));
#149=EDGE_LOOP('',(#361,#362,#363,#364));
#150=EDGE_LOOP('',(#365,#366,#367,#368));
#151=CIRCLE('',#420,0.199999999999996);
#152=CIRCLE('',#421,0.199999999999996);
#153=CIRCLE('',#422,0.2);
#154=CIRCLE('',#424,0.199999999999996);
#155=CIRCLE('',#425,0.199999999999996);
#156=CIRCLE('',#426,0.2);
#157=CIRCLE('',#428,0.199999999999996);
#158=CIRCLE('',#429,0.2);
#159=CIRCLE('',#430,0.199999999999996);
#160=CIRCLE('',#432,0.2);
#161=CIRCLE('',#433,0.199999999999996);
#162=CIRCLE('',#434,0.2);
#163=CIRCLE('',#436,0.199999999999996);
#164=CIRCLE('',#437,0.2);
#165=CIRCLE('',#438,0.2);
#166=CIRCLE('',#440,0.2);
#167=CIRCLE('',#441,0.199999999999996);
#168=CIRCLE('',#442,0.200000000000005);
#169=CIRCLE('',#444,0.199999999999996);
#170=CIRCLE('',#445,0.2);
#171=CIRCLE('',#446,0.199999999999996);
#172=CIRCLE('',#448,0.199999999999996);
#173=CIRCLE('',#449,0.2);
#174=CIRCLE('',#450,0.2);
#175=CIRCLE('',#465,1.49999999999999);
#176=CIRCLE('',#466,1.5);
#177=CIRCLE('',#471,1.49999999999999);
#178=CIRCLE('',#472,1.5);
#179=VERTEX_POINT('',#617);
#180=VERTEX_POINT('',#618);
#181=VERTEX_POINT('',#620);
#182=VERTEX_POINT('',#624);
#183=VERTEX_POINT('',#625);
#184=VERTEX_POINT('',#627);
#185=VERTEX_POINT('',#631);
#186=VERTEX_POINT('',#632);
#187=VERTEX_POINT('',#634);
#188=VERTEX_POINT('',#638);
#189=VERTEX_POINT('',#639);
#190=VERTEX_POINT('',#641);
#191=VERTEX_POINT('',#645);
#192=VERTEX_POINT('',#646);
#193=VERTEX_POINT('',#648);
#194=VERTEX_POINT('',#652);
#195=VERTEX_POINT('',#653);
#196=VERTEX_POINT('',#655);
#197=VERTEX_POINT('',#659);
#198=VERTEX_POINT('',#660);
#199=VERTEX_POINT('',#662);
#200=VERTEX_POINT('',#666);
#201=VERTEX_POINT('',#667);
#202=VERTEX_POINT('',#669);
#203=VERTEX_POINT('',#710);
#204=VERTEX_POINT('',#712);
#205=VERTEX_POINT('',#718);
#206=VERTEX_POINT('',#720);
#207=EDGE_CURVE('',#179,#180,#151,.F.);
#208=EDGE_CURVE('',#181,#179,#152,.F.);
#209=EDGE_CURVE('',#180,#181,#153,.F.);
#210=EDGE_CURVE('',#182,#183,#154,.F.);
#211=EDGE_CURVE('',#184,#182,#155,.F.);
#212=EDGE_CURVE('',#183,#184,#156,.F.);
#213=EDGE_CURVE('',#185,#186,#157,.F.);
#214=EDGE_CURVE('',#187,#185,#158,.F.);
#215=EDGE_CURVE('',#186,#187,#159,.F.);
#216=EDGE_CURVE('',#188,#189,#160,.F.);
#217=EDGE_CURVE('',#190,#188,#161,.F.);
#218=EDGE_CURVE('',#189,#190,#162,.F.);
#219=EDGE_CURVE('',#191,#192,#163,.F.);
#220=EDGE_CURVE('',#193,#191,#164,.F.);
#221=EDGE_CURVE('',#192,#193,#165,.F.);
#222=EDGE_CURVE('',#194,#195,#166,.F.);
#223=EDGE_CURVE('',#196,#194,#167,.F.);
#224=EDGE_CURVE('',#195,#196,#168,.F.);
#225=EDGE_CURVE('',#197,#198,#169,.F.);
#226=EDGE_CURVE('',#199,#197,#170,.F.);
#227=EDGE_CURVE('',#198,#199,#171,.F.);
#228=EDGE_CURVE('',#200,#201,#172,.F.);
#229=EDGE_CURVE('',#202,#200,#173,.F.);
#230=EDGE_CURVE('',#201,#202,#174,.F.);
#231=EDGE_CURVE('',#200,#196,#25,.T.);
#232=EDGE_CURVE('',#194,#202,#26,.T.);
#233=EDGE_CURVE('',#197,#201,#27,.T.);
#234=EDGE_CURVE('',#202,#199,#28,.T.);
#235=EDGE_CURVE('',#191,#200,#29,.T.);
#236=EDGE_CURVE('',#201,#193,#30,.T.);
#237=EDGE_CURVE('',#185,#198,#31,.T.);
#238=EDGE_CURVE('',#199,#187,#32,.T.);
#239=EDGE_CURVE('',#188,#197,#33,.T.);
#240=EDGE_CURVE('',#198,#190,#34,.T.);
#241=EDGE_CURVE('',#182,#195,#35,.T.);
#242=EDGE_CURVE('',#196,#184,#36,.T.);
#243=EDGE_CURVE('',#195,#186,#37,.T.);
#244=EDGE_CURVE('',#187,#194,#38,.T.);
#245=EDGE_CURVE('',#189,#192,#39,.T.);
#246=EDGE_CURVE('',#193,#188,#40,.T.);
#247=EDGE_CURVE('',#192,#183,#41,.T.);
#248=EDGE_CURVE('',#184,#191,#42,.T.);
#249=EDGE_CURVE('',#180,#189,#43,.T.);
#250=EDGE_CURVE('',#190,#179,#44,.T.);
#251=EDGE_CURVE('',#179,#185,#45,.T.);
#252=EDGE_CURVE('',#186,#181,#46,.T.);
#253=EDGE_CURVE('',#183,#180,#47,.T.);
#254=EDGE_CURVE('',#181,#182,#48,.T.);
#255=EDGE_CURVE('',#203,#203,#175,.T.);
#256=EDGE_CURVE('',#204,#204,#176,.T.);
#257=EDGE_CURVE('',#205,#205,#177,.T.);
#258=EDGE_CURVE('',#206,#206,#178,.T.);
#259=EDGE_CURVE('',#205,#203,#49,.T.);
#260=EDGE_CURVE('',#206,#204,#50,.T.);
#261=ORIENTED_EDGE('',*,*,#207,.F.);
#262=ORIENTED_EDGE('',*,*,#208,.F.);
#263=ORIENTED_EDGE('',*,*,#209,.F.);
#264=ORIENTED_EDGE('',*,*,#210,.F.);
#265=ORIENTED_EDGE('',*,*,#211,.F.);
#266=ORIENTED_EDGE('',*,*,#212,.F.);
#267=ORIENTED_EDGE('',*,*,#213,.F.);
#268=ORIENTED_EDGE('',*,*,#214,.F.);
#269=ORIENTED_EDGE('',*,*,#215,.F.);
#270=ORIENTED_EDGE('',*,*,#216,.F.);
#271=ORIENTED_EDGE('',*,*,#217,.F.);
#272=ORIENTED_EDGE('',*,*,#218,.F.);
#273=ORIENTED_EDGE('',*,*,#219,.F.);
#274=ORIENTED_EDGE('',*,*,#220,.F.);
#275=ORIENTED_EDGE('',*,*,#221,.F.);
#276=ORIENTED_EDGE('',*,*,#222,.F.);
#277=ORIENTED_EDGE('',*,*,#223,.F.);
#278=ORIENTED_EDGE('',*,*,#224,.F.);
#279=ORIENTED_EDGE('',*,*,#225,.F.);
#280=ORIENTED_EDGE('',*,*,#226,.F.);
#281=ORIENTED_EDGE('',*,*,#227,.F.);
#282=ORIENTED_EDGE('',*,*,#228,.F.);
#283=ORIENTED_EDGE('',*,*,#229,.F.);
#284=ORIENTED_EDGE('',*,*,#230,.F.);
#285=ORIENTED_EDGE('',*,*,#229,.T.);
#286=ORIENTED_EDGE('',*,*,#231,.T.);
#287=ORIENTED_EDGE('',*,*,#223,.T.);
#288=ORIENTED_EDGE('',*,*,#232,.T.);
#289=ORIENTED_EDGE('',*,*,#226,.T.);
#290=ORIENTED_EDGE('',*,*,#233,.T.);
#291=ORIENTED_EDGE('',*,*,#230,.T.);
#292=ORIENTED_EDGE('',*,*,#234,.T.);
#293=ORIENTED_EDGE('',*,*,#220,.T.);
#294=ORIENTED_EDGE('',*,*,#235,.T.);
#295=ORIENTED_EDGE('',*,*,#228,.T.);
#296=ORIENTED_EDGE('',*,*,#236,.T.);
#297=ORIENTED_EDGE('',*,*,#214,.T.);
#298=ORIENTED_EDGE('',*,*,#237,.T.);
#299=ORIENTED_EDGE('',*,*,#227,.T.);
#300=ORIENTED_EDGE('',*,*,#238,.T.);
#301=ORIENTED_EDGE('',*,*,#217,.T.);
#302=ORIENTED_EDGE('',*,*,#239,.T.);
#303=ORIENTED_EDGE('',*,*,#225,.T.);
#304=ORIENTED_EDGE('',*,*,#240,.T.);
#305=ORIENTED_EDGE('',*,*,#211,.T.);
#306=ORIENTED_EDGE('',*,*,#241,.T.);
#307=ORIENTED_EDGE('',*,*,#224,.T.);
#308=ORIENTED_EDGE('',*,*,#242,.T.);
#309=ORIENTED_EDGE('',*,*,#222,.T.);
#310=ORIENTED_EDGE('',*,*,#243,.T.);
#311=ORIENTED_EDGE('',*,*,#215,.T.);
#312=ORIENTED_EDGE('',*,*,#244,.T.);
#313=ORIENTED_EDGE('',*,*,#216,.T.);
#314=ORIENTED_EDGE('',*,*,#245,.T.);
#315=ORIENTED_EDGE('',*,*,#221,.T.);
#316=ORIENTED_EDGE('',*,*,#246,.T.);
#317=ORIENTED_EDGE('',*,*,#219,.T.);
#318=ORIENTED_EDGE('',*,*,#247,.T.);
#319=ORIENTED_EDGE('',*,*,#212,.T.);
#320=ORIENTED_EDGE('',*,*,#248,.T.);
#321=ORIENTED_EDGE('',*,*,#207,.T.);
#322=ORIENTED_EDGE('',*,*,#249,.T.);
#323=ORIENTED_EDGE('',*,*,#218,.T.);
#324=ORIENTED_EDGE('',*,*,#250,.T.);
#325=ORIENTED_EDGE('',*,*,#208,.T.);
#326=ORIENTED_EDGE('',*,*,#251,.T.);
#327=ORIENTED_EDGE('',*,*,#213,.T.);
#328=ORIENTED_EDGE('',*,*,#252,.T.);
#329=ORIENTED_EDGE('',*,*,#210,.T.);
#330=ORIENTED_EDGE('',*,*,#253,.T.);
#331=ORIENTED_EDGE('',*,*,#209,.T.);
#332=ORIENTED_EDGE('',*,*,#254,.T.);
#333=ORIENTED_EDGE('',*,*,#231,.F.);
#334=ORIENTED_EDGE('',*,*,#235,.F.);
#335=ORIENTED_EDGE('',*,*,#248,.F.);
#336=ORIENTED_EDGE('',*,*,#242,.F.);
#337=ORIENTED_EDGE('',*,*,#232,.F.);
#338=ORIENTED_EDGE('',*,*,#244,.F.);
#339=ORIENTED_EDGE('',*,*,#238,.F.);
#340=ORIENTED_EDGE('',*,*,#234,.F.);
#341=ORIENTED_EDGE('',*,*,#255,.F.);
#342=ORIENTED_EDGE('',*,*,#256,.F.);
#343=ORIENTED_EDGE('',*,*,#233,.F.);
#344=ORIENTED_EDGE('',*,*,#239,.F.);
#345=ORIENTED_EDGE('',*,*,#246,.F.);
#346=ORIENTED_EDGE('',*,*,#236,.F.);
#347=ORIENTED_EDGE('',*,*,#237,.F.);
#348=ORIENTED_EDGE('',*,*,#251,.F.);
#349=ORIENTED_EDGE('',*,*,#250,.F.);
#350=ORIENTED_EDGE('',*,*,#240,.F.);
#351=ORIENTED_EDGE('',*,*,#241,.F.);
#352=ORIENTED_EDGE('',*,*,#254,.F.);
#353=ORIENTED_EDGE('',*,*,#252,.F.);
#354=ORIENTED_EDGE('',*,*,#243,.F.);
#355=ORIENTED_EDGE('',*,*,#245,.F.);
#356=ORIENTED_EDGE('',*,*,#249,.F.);
#357=ORIENTED_EDGE('',*,*,#253,.F.);
#358=ORIENTED_EDGE('',*,*,#247,.F.);
#359=ORIENTED_EDGE('',*,*,#257,.T.);
#360=ORIENTED_EDGE('',*,*,#258,.T.);
#361=ORIENTED_EDGE('',*,*,#257,.F.);
#362=ORIENTED_EDGE('',*,*,#259,.T.);
#363=ORIENTED_EDGE('',*,*,#255,.T.);
#364=ORIENTED_EDGE('',*,*,#259,.F.);
#365=ORIENTED_EDGE('',*,*,#258,.F.);
#366=ORIENTED_EDGE('',*,*,#260,.T.);
#367=ORIENTED_EDGE('',*,*,#256,.T.);
#368=ORIENTED_EDGE('',*,*,#260,.F.);
#369=SPHERICAL_SURFACE('',#419,0.199999999999996);
#370=SPHERICAL_SURFACE('',#423,0.199999999999996);
#371=SPHERICAL_SURFACE('',#427,0.2);
#372=SPHERICAL_SURFACE('',#431,0.199999999999996);
#373=SPHERICAL_SURFACE('',#435,0.2);
#374=SPHERICAL_SURFACE('',#439,0.199999999999996);
#375=SPHERICAL_SURFACE('',#443,0.2);
#376=SPHERICAL_SURFACE('',#447,0.2);
#377=ADVANCED_FACE('',(#91),#369,.T.);
#378=ADVANCED_FACE('',(#92),#370,.T.);
#379=ADVANCED_FACE('',(#93),#371,.T.);
#380=ADVANCED_FACE('',(#94),#372,.T.);
#381=ADVANCED_FACE('',(#95),#373,.T.);
#382=ADVANCED_FACE('',(#96),#374,.T.);
#383=ADVANCED_FACE('',(#97),#375,.T.);
#384=ADVANCED_FACE('',(#98),#376,.T.);
#385=ADVANCED_FACE('',(#99),#77,.T.);
#386=ADVANCED_FACE('',(#100),#78,.T.);
#387=ADVANCED_FACE('',(#101),#79,.T.);
#388=ADVANCED_FACE('',(#102),#80,.T.);
#389=ADVANCED_FACE('',(#103),#81,.T.);
#390=ADVANCED_FACE('',(#104),#82,.T.);
#391=ADVANCED_FACE('',(#105),#83,.T.);
#392=ADVANCED_FACE('',(#106),#84,.T.);
#393=ADVANCED_FACE('',(#107),#85,.T.);
#394=ADVANCED_FACE('',(#108),#86,.T.);
#395=ADVANCED_FACE('',(#109),#87,.T.);
#396=ADVANCED_FACE('',(#110),#88,.T.);
#397=ADVANCED_FACE('',(#111),#19,.T.);
#398=ADVANCED_FACE('',(#112,#15,#16),#20,.F.);
#399=ADVANCED_FACE('',(#113),#21,.T.);
#400=ADVANCED_FACE('',(#114),#22,.T.);
#401=ADVANCED_FACE('',(#115),#23,.T.);
#402=ADVANCED_FACE('',(#116,#17,#18),#24,.T.);
#403=ADVANCED_FACE('',(#117),#89,.F.);
#404=ADVANCED_FACE('',(#118),#90,.F.);
#405=CLOSED_SHELL('',(#377,#378,#379,#380,#381,#382,#383,#384,#385,#386,
#387,#388,#389,#390,#391,#392,#393,#394,#395,#396,#397,#398,#399,#400,#401,
#402,#403,#404));
#406=DERIVED_UNIT_ELEMENT(#408,1.);
#407=DERIVED_UNIT_ELEMENT(#731,-3.);
#408=(
MASS_UNIT()
NAMED_UNIT(*)
SI_UNIT(.KILO.,.GRAM.)
);
#409=DERIVED_UNIT((#406,#407));
#410=MEASURE_REPRESENTATION_ITEM('density measure',
POSITIVE_RATIO_MEASURE(7850.),#409);
#411=PROPERTY_DEFINITION_REPRESENTATION(#416,#413);
#412=PROPERTY_DEFINITION_REPRESENTATION(#417,#414);
#413=REPRESENTATION('material name',(#415),#728);
#414=REPRESENTATION('density',(#410),#728);
#415=DESCRIPTIVE_REPRESENTATION_ITEM('Steel','Steel');
#416=PROPERTY_DEFINITION('material property','material name',#738);
#417=PROPERTY_DEFINITION('material property','density of part',#738);
#418=AXIS2_PLACEMENT_3D('',#615,#475,#476);
#419=AXIS2_PLACEMENT_3D('',#616,#477,#478);
#420=AXIS2_PLACEMENT_3D('',#619,#479,#480);
#421=AXIS2_PLACEMENT_3D('',#621,#481,#482);
#422=AXIS2_PLACEMENT_3D('',#622,#483,#484);
#423=AXIS2_PLACEMENT_3D('',#623,#485,#486);
#424=AXIS2_PLACEMENT_3D('',#626,#487,#488);
#425=AXIS2_PLACEMENT_3D('',#628,#489,#490);
#426=AXIS2_PLACEMENT_3D('',#629,#491,#492);
#427=AXIS2_PLACEMENT_3D('',#630,#493,#494);
#428=AXIS2_PLACEMENT_3D('',#633,#495,#496);
#429=AXIS2_PLACEMENT_3D('',#635,#497,#498);
#430=AXIS2_PLACEMENT_3D('',#636,#499,#500);
#431=AXIS2_PLACEMENT_3D('',#637,#501,#502);
#432=AXIS2_PLACEMENT_3D('',#640,#503,#504);
#433=AXIS2_PLACEMENT_3D('',#642,#505,#506);
#434=AXIS2_PLACEMENT_3D('',#643,#507,#508);
#435=AXIS2_PLACEMENT_3D('',#644,#509,#510);
#436=AXIS2_PLACEMENT_3D('',#647,#511,#512);
#437=AXIS2_PLACEMENT_3D('',#649,#513,#514);
#438=AXIS2_PLACEMENT_3D('',#650,#515,#516);
#439=AXIS2_PLACEMENT_3D('',#651,#517,#518);
#440=AXIS2_PLACEMENT_3D('',#654,#519,#520);
#441=AXIS2_PLACEMENT_3D('',#656,#521,#522);
#442=AXIS2_PLACEMENT_3D('',#657,#523,#524);
#443=AXIS2_PLACEMENT_3D('',#658,#525,#526);
#444=AXIS2_PLACEMENT_3D('',#661,#527,#528);
#445=AXIS2_PLACEMENT_3D('',#663,#529,#530);
#446=AXIS2_PLACEMENT_3D('',#664,#531,#532);
#447=AXIS2_PLACEMENT_3D('',#665,#533,#534);
#448=AXIS2_PLACEMENT_3D('',#668,#535,#536);
#449=AXIS2_PLACEMENT_3D('',#670,#537,#538);
#450=AXIS2_PLACEMENT_3D('',#671,#539,#540);
#451=AXIS2_PLACEMENT_3D('',#672,#541,#542);
#452=AXIS2_PLACEMENT_3D('',#675,#545,#546);
#453=AXIS2_PLACEMENT_3D('',#678,#549,#550);
#454=AXIS2_PLACEMENT_3D('',#681,#553,#554);
#455=AXIS2_PLACEMENT_3D('',#684,#557,#558);
#456=AXIS2_PLACEMENT_3D('',#687,#561,#562);
#457=AXIS2_PLACEMENT_3D('',#690,#565,#566);
#458=AXIS2_PLACEMENT_3D('',#693,#569,#570);
#459=AXIS2_PLACEMENT_3D('',#696,#573,#574);
#460=AXIS2_PLACEMENT_3D('',#699,#577,#578);
#461=AXIS2_PLACEMENT_3D('',#702,#581,#582);
#462=AXIS2_PLACEMENT_3D('',#705,#585,#586);
#463=AXIS2_PLACEMENT_3D('',#708,#589,#590);
#464=AXIS2_PLACEMENT_3D('',#709,#591,#592);
#465=AXIS2_PLACEMENT_3D('',#711,#593,#594);
#466=AXIS2_PLACEMENT_3D('',#713,#595,#596);
#467=AXIS2_PLACEMENT_3D('',#714,#597,#598);
#468=AXIS2_PLACEMENT_3D('',#715,#599,#600);
#469=AXIS2_PLACEMENT_3D('',#716,#601,#602);
#470=AXIS2_PLACEMENT_3D('',#717,#603,#604);
#471=AXIS2_PLACEMENT_3D('',#719,#605,#606);
#472=AXIS2_PLACEMENT_3D('',#721,#607,#608);
#473=AXIS2_PLACEMENT_3D('',#722,#609,#610);
#474=AXIS2_PLACEMENT_3D('',#724,#612,#613);
#475=DIRECTION('axis',(0.,0.,1.));
#476=DIRECTION('refdir',(1.,0.,0.));
#477=DIRECTION('center_axis',(-0.816496580927732,0.408248290463866,-0.408248290463848));
#478=DIRECTION('ref_axis',(0.57735026918962,0.577350269189638,-0.57735026918962));
#479=DIRECTION('center_axis',(0.,0.,-1.));
#480=DIRECTION('ref_axis',(1.,0.,0.));
#481=DIRECTION('center_axis',(0.,1.,0.));
#482=DIRECTION('ref_axis',(0.,0.,-1.));
#483=DIRECTION('center_axis',(1.,0.,0.));
#484=DIRECTION('ref_axis',(0.,1.,0.));
#485=DIRECTION('center_axis',(-0.408248290463863,-0.816496580927726,-0.408248290463863));
#486=DIRECTION('ref_axis',(-0.577350269189626,0.577350269189608,-0.577350269189644));
#487=DIRECTION('center_axis',(-1.,0.,0.));
#488=DIRECTION('ref_axis',(0.,0.,-1.));
#489=DIRECTION('center_axis',(0.,1.,0.));
#490=DIRECTION('ref_axis',(-1.,0.,0.));
#491=DIRECTION('center_axis',(-2.22044604925036E-14,0.,-1.));
#492=DIRECTION('ref_axis',(0.,1.,0.));
#493=DIRECTION('center_axis',(-0.81649658092773,-0.408248290463861,-0.408248290463856));
#494=DIRECTION('ref_axis',(0.577350269189622,-0.577350269189634,-0.577350269189622));
#495=DIRECTION('center_axis',(0.,-1.,0.));
#496=DIRECTION('ref_axis',(1.,0.,0.));
#497=DIRECTION('center_axis',(0.,0.,-1.));
#498=DIRECTION('ref_axis',(0.,-1.,0.));
#499=DIRECTION('center_axis',(1.,0.,0.));
#500=DIRECTION('ref_axis',(0.,0.,-1.));
#501=DIRECTION('center_axis',(-0.816496580927726,0.408248290463872,0.408248290463854));
#502=DIRECTION('ref_axis',(0.57735026918962,0.577350269189638,0.57735026918962));
#503=DIRECTION('center_axis',(1.,0.,0.));
#504=DIRECTION('ref_axis',(0.,0.,1.));
#505=DIRECTION('center_axis',(0.,1.,0.));
#506=DIRECTION('ref_axis',(1.,0.,0.));
#507=DIRECTION('center_axis',(-2.22044604925036E-14,0.,1.));
#508=DIRECTION('ref_axis',(0.,1.,0.));
#509=DIRECTION('center_axis',(-0.40824829046386,-0.81649658092772,0.408248290463878));
#510=DIRECTION('ref_axis',(-0.57735026918962,0.57735026918962,0.577350269189638));
#511=DIRECTION('center_axis',(0.,0.,1.));
#512=DIRECTION('ref_axis',(-1.,0.,0.));
#513=DIRECTION('center_axis',(0.,1.,0.));
#514=DIRECTION('ref_axis',(0.,0.,1.));
#515=DIRECTION('center_axis',(-1.,0.,0.));
#516=DIRECTION('ref_axis',(0.,1.,0.));
#517=DIRECTION('center_axis',(0.408248290463864,-0.816496580927725,0.408248290463864));
#518=DIRECTION('ref_axis',(-0.577350269189626,-0.577350269189608,-0.577350269189644));
#519=DIRECTION('center_axis',(-1.,0.,0.));
#520=DIRECTION('ref_axis',(0.,-1.,0.));
#521=DIRECTION('center_axis',(0.,4.44089209850062E-14,-1.));
#522=DIRECTION('ref_axis',(-1.,0.,0.));
#523=DIRECTION('center_axis',(0.,-1.,0.));
#524=DIRECTION('ref_axis',(0.,0.,-1.));
#525=DIRECTION('center_axis',(-0.408248290463858,-0.816496580927723,-0.408248290463875));
#526=DIRECTION('ref_axis',(0.577350269189607,-0.577350269189628,0.577350269189643));
#527=DIRECTION('center_axis',(0.,-1.,0.));
#528=DIRECTION('ref_axis',(0.,0.,1.));
#529=DIRECTION('center_axis',(1.,0.,0.));
#530=DIRECTION('ref_axis',(0.,-1.,0.));
#531=DIRECTION('center_axis',(0.,-2.22044604925031E-14,1.));
#532=DIRECTION('ref_axis',(1.,0.,0.));
#533=DIRECTION('center_axis',(-0.816496580927722,0.408248290463873,-0.408248290463861));
#534=DIRECTION('ref_axis',(-0.577350269189626,-0.577350269189642,0.577350269189609));
#535=DIRECTION('center_axis',(0.,-1.,0.));
#536=DIRECTION('ref_axis',(-1.,0.,0.));
#537=DIRECTION('center_axis',(0.,0.,1.));
#538=DIRECTION('ref_axis',(0.,-1.,0.));
#539=DIRECTION('center_axis',(-1.,0.,0.));
#540=DIRECTION('ref_axis',(0.,0.,1.));
#541=DIRECTION('center_axis',(0.,0.,1.));
#542=DIRECTION('ref_axis',(-0.70710678118654,-0.707106781186555,0.));
#543=DIRECTION('',(0.,0.,-1.));
#544=DIRECTION('',(0.,0.,1.));
#545=DIRECTION('center_axis',(1.,0.,0.));
#546=DIRECTION('ref_axis',(0.,-0.707106781186539,0.707106781186556));
#547=DIRECTION('',(-1.,0.,0.));
#548=DIRECTION('',(1.,0.,0.));
#549=DIRECTION('center_axis',(0.,1.,0.));
#550=DIRECTION('ref_axis',(-0.707106781186532,0.,0.707106781186563));
#551=DIRECTION('',(0.,-1.,0.));
#552=DIRECTION('',(0.,1.,0.));
#553=DIRECTION('center_axis',(0.,0.,-1.));
#554=DIRECTION('ref_axis',(0.70710678118654,-0.707106781186555,0.));
#555=DIRECTION('',(0.,0.,1.));
#556=DIRECTION('',(0.,0.,-1.));
#557=DIRECTION('center_axis',(0.,1.,0.));
#558=DIRECTION('ref_axis',(0.707106781186548,0.,0.707106781186548));
#559=DIRECTION('',(0.,-1.,0.));
#560=DIRECTION('',(0.,1.,0.));
#561=DIRECTION('center_axis',(0.,1.,0.));
#562=DIRECTION('ref_axis',(-0.707106781186532,0.,-0.707106781186563));
#563=DIRECTION('',(0.,-1.,0.));
#564=DIRECTION('',(0.,1.,0.));
#565=DIRECTION('center_axis',(-1.,0.,-4.71844785465692E-16));
#566=DIRECTION('ref_axis',(0.,-0.707106781186555,-0.70710678118654));
#567=DIRECTION('',(1.,0.,4.71844785465692E-16));
#568=DIRECTION('',(-1.,0.,-4.71844785465692E-16));
#569=DIRECTION('center_axis',(1.,0.,0.));
#570=DIRECTION('ref_axis',(0.,0.707106781186548,0.707106781186548));
#571=DIRECTION('',(-1.,0.,0.));
#572=DIRECTION('',(1.,0.,0.));
#573=DIRECTION('center_axis',(0.,0.,1.));
#574=DIRECTION('ref_axis',(-0.707106781186532,0.707106781186563,0.));
#575=DIRECTION('',(0.,0.,-1.));
#576=DIRECTION('',(0.,0.,1.));
#577=DIRECTION('center_axis',(0.,0.,-1.));
#578=DIRECTION('ref_axis',(0.707106781186532,0.707106781186563,0.));
#579=DIRECTION('',(0.,0.,1.));
#580=DIRECTION('',(0.,0.,-1.));
#581=DIRECTION('center_axis',(0.,1.,0.));
#582=DIRECTION('ref_axis',(0.707106781186548,0.,-0.707106781186548));
#583=DIRECTION('',(0.,-1.,0.));
#584=DIRECTION('',(0.,1.,0.));
#585=DIRECTION('center_axis',(-1.,0.,-4.71844785465692E-16));
#586=DIRECTION('ref_axis',(0.,0.707106781186563,-0.707106781186532));
#587=DIRECTION('',(1.,0.,4.71844785465692E-16));
#588=DIRECTION('',(-1.,0.,-4.71844785465692E-16));
#589=DIRECTION('center_axis',(-1.,0.,0.));
#590=DIRECTION('ref_axis',(0.,0.,1.));
#591=DIRECTION('center_axis',(0.,1.,0.));
#592=DIRECTION('ref_axis',(1.,0.,0.));
#593=DIRECTION('center_axis',(0.,-1.,0.));
#594=DIRECTION('ref_axis',(1.,0.,0.));
#595=DIRECTION('center_axis',(0.,-1.,0.));
#596=DIRECTION('ref_axis',(1.,0.,0.));
#597=DIRECTION('center_axis',(0.,0.,1.));
#598=DIRECTION('ref_axis',(1.,0.,0.));
#599=DIRECTION('center_axis',(1.,0.,0.));
#600=DIRECTION('ref_axis',(0.,0.,-1.));
#601=DIRECTION('center_axis',(4.71844785465692E-16,0.,-1.));
#602=DIRECTION('ref_axis',(-1.,0.,-4.71844785465692E-16));
#603=DIRECTION('center_axis',(0.,1.,0.));
#604=DIRECTION('ref_axis',(1.,0.,0.));
#605=DIRECTION('center_axis',(0.,-1.,0.));
#606=DIRECTION('ref_axis',(1.,0.,0.));
#607=DIRECTION('center_axis',(0.,-1.,0.));
#608=DIRECTION('ref_axis',(1.,0.,0.));
#609=DIRECTION('center_axis',(0.,1.,0.));
#610=DIRECTION('ref_axis',(1.,0.,0.));
#611=DIRECTION('',(0.,-1.,0.));
#612=DIRECTION('center_axis',(0.,1.,0.));
#613=DIRECTION('ref_axis',(1.,0.,0.));
#614=DIRECTION('',(0.,-1.,0.));
#615=CARTESIAN_POINT('',(0.,0.,0.));
#616=CARTESIAN_POINT('Origin',(24.8,24.8,-24.8));
#617=CARTESIAN_POINT('',(25.,24.8,-24.8));
#618=CARTESIAN_POINT('',(24.8,25.,-24.8));
#619=CARTESIAN_POINT('Origin',(24.8,24.8,-24.8));
#620=CARTESIAN_POINT('',(24.8,24.8,-25.));
#621=CARTESIAN_POINT('Origin',(24.8,24.8,-24.8));
#622=CARTESIAN_POINT('Origin',(24.8,24.8,-24.8));
#623=CARTESIAN_POINT('Origin',(-134.8,24.8,-24.8000000000001));
#624=CARTESIAN_POINT('',(-134.8,24.8,-25.0000000000001));
#625=CARTESIAN_POINT('',(-134.8,25.,-24.8000000000001));
#626=CARTESIAN_POINT('Origin',(-134.8,24.8,-24.8000000000001));
#627=CARTESIAN_POINT('',(-135.,24.8,-24.8000000000001));
#628=CARTESIAN_POINT('Origin',(-134.8,24.8,-24.8000000000001));
#629=CARTESIAN_POINT('Origin',(-134.8,24.8,-24.8000000000001));
#630=CARTESIAN_POINT('Origin',(24.8,0.2,-24.8));
#631=CARTESIAN_POINT('',(25.,0.2,-24.8));
#632=CARTESIAN_POINT('',(24.8,0.2,-25.));
#633=CARTESIAN_POINT('Origin',(24.8,0.2,-24.8));
#634=CARTESIAN_POINT('',(24.8,0.,-24.8));
#635=CARTESIAN_POINT('Origin',(24.8,0.2,-24.8));
#636=CARTESIAN_POINT('Origin',(24.8,0.2,-24.8));
#637=CARTESIAN_POINT('Origin',(24.8,24.8,24.8));
#638=CARTESIAN_POINT('',(24.8,24.8,25.));
#639=CARTESIAN_POINT('',(24.8,25.,24.8));
#640=CARTESIAN_POINT('Origin',(24.8,24.8,24.8));
#641=CARTESIAN_POINT('',(25.,24.8,24.8));
#642=CARTESIAN_POINT('Origin',(24.8,24.8,24.8));
#643=CARTESIAN_POINT('Origin',(24.8,24.8,24.8));
#644=CARTESIAN_POINT('Origin',(-134.8,24.8,24.8));
#645=CARTESIAN_POINT('',(-135.,24.8,24.8));
#646=CARTESIAN_POINT('',(-134.8,25.,24.8));
#647=CARTESIAN_POINT('Origin',(-134.8,24.8,24.8));
#648=CARTESIAN_POINT('',(-134.8,24.8,25.));
#649=CARTESIAN_POINT('Origin',(-134.8,24.8,24.8));
#650=CARTESIAN_POINT('Origin',(-134.8,24.8,24.8));
#651=CARTESIAN_POINT('Origin',(-134.8,0.2,-24.8000000000001));
#652=CARTESIAN_POINT('',(-134.8,0.,-24.8000000000001));
#653=CARTESIAN_POINT('',(-134.8,0.2,-25.0000000000001));
#654=CARTESIAN_POINT('Origin',(-134.8,0.2,-24.8000000000001));
#655=CARTESIAN_POINT('',(-135.,0.2,-24.8000000000001));
#656=CARTESIAN_POINT('Origin',(-134.8,0.2,-24.8000000000001));
#657=CARTESIAN_POINT('Origin',(-134.8,0.2,-24.8000000000001));
#658=CARTESIAN_POINT('Origin',(24.8,0.2,24.8));
#659=CARTESIAN_POINT('',(24.8,0.2,25.));
#660=CARTESIAN_POINT('',(25.,0.2,24.8));
#661=CARTESIAN_POINT('Origin',(24.8,0.2,24.8));
#662=CARTESIAN_POINT('',(24.8,0.,24.8));
#663=CARTESIAN_POINT('Origin',(24.8,0.2,24.8));
#664=CARTESIAN_POINT('Origin',(24.8,0.2,24.8));
#665=CARTESIAN_POINT('Origin',(-134.8,0.2,24.8));
#666=CARTESIAN_POINT('',(-135.,0.2,24.8));
#667=CARTESIAN_POINT('',(-134.8,0.2,25.));
#668=CARTESIAN_POINT('Origin',(-134.8,0.2,24.8));
#669=CARTESIAN_POINT('',(-134.8,0.,24.8));
#670=CARTESIAN_POINT('Origin',(-134.8,0.2,24.8));
#671=CARTESIAN_POINT('Origin',(-134.8,0.2,24.8));
#672=CARTESIAN_POINT('Origin',(-134.8,0.2,-12.5000000000001));
#673=CARTESIAN_POINT('',(-135.,0.2,-12.5000000000001));
#674=CARTESIAN_POINT('',(-134.8,0.,-12.5000000000001));
#675=CARTESIAN_POINT('Origin',(-95.,0.2,24.8));
#676=CARTESIAN_POINT('',(-95.,0.2,25.));
#677=CARTESIAN_POINT('',(-95.,0.,24.8));
#678=CARTESIAN_POINT('Origin',(-134.8,0.,24.8));
#679=CARTESIAN_POINT('',(-135.,0.,24.8));
#680=CARTESIAN_POINT('',(-134.8,0.,25.));
#681=CARTESIAN_POINT('Origin',(24.8,0.2,12.5));
#682=CARTESIAN_POINT('',(25.,0.2,12.5));
#683=CARTESIAN_POINT('',(24.8,0.,12.5));
#684=CARTESIAN_POINT('Origin',(24.8,0.,24.8));
#685=CARTESIAN_POINT('',(24.8,0.,25.));
#686=CARTESIAN_POINT('',(25.,0.,24.8));
#687=CARTESIAN_POINT('Origin',(-134.8,0.,-24.8000000000001));
#688=CARTESIAN_POINT('',(-134.8,0.,-25.0000000000001));
#689=CARTESIAN_POINT('',(-135.,0.,-24.8000000000001));
#690=CARTESIAN_POINT('Origin',(-15.,0.2,-24.8));
#691=CARTESIAN_POINT('',(-15.,0.2,-25.));
#692=CARTESIAN_POINT('',(-15.,0.,-24.8));
#693=CARTESIAN_POINT('Origin',(-95.,24.8,24.8));
#694=CARTESIAN_POINT('',(-95.,25.,24.8));
#695=CARTESIAN_POINT('',(-95.,24.8,25.));
#696=CARTESIAN_POINT('Origin',(-134.8,24.8,-12.5000000000001));
#697=CARTESIAN_POINT('',(-134.8,25.,-12.5000000000001));
#698=CARTESIAN_POINT('',(-135.,24.8,-12.5000000000001));
#699=CARTESIAN_POINT('Origin',(24.8,24.8,12.5));
#700=CARTESIAN_POINT('',(24.8,25.,12.5));
#701=CARTESIAN_POINT('',(25.,24.8,12.5));
#702=CARTESIAN_POINT('Origin',(24.8,0.,-24.8));
#703=CARTESIAN_POINT('',(25.,0.,-24.8));
#704=CARTESIAN_POINT('',(24.8,0.,-25.));
#705=CARTESIAN_POINT('Origin',(-15.,24.8,-24.8));
#706=CARTESIAN_POINT('',(-15.,25.,-24.8));
#707=CARTESIAN_POINT('',(-15.,24.8,-25.));
#708=CARTESIAN_POINT('Origin',(-135.,0.,-25.0000000000001));
#709=CARTESIAN_POINT('Origin',(-55.,0.,-3.5527136788005E-14));
#710=CARTESIAN_POINT('',(-126.5,0.,17.));
#711=CARTESIAN_POINT('Origin',(-125.,0.,17.));
#712=CARTESIAN_POINT('',(-126.5,0.,-17.));
#713=CARTESIAN_POINT('Origin',(-125.,0.,-17.));
#714=CARTESIAN_POINT('Origin',(-135.,0.,25.));
#715=CARTESIAN_POINT('Origin',(25.,0.,25.));
#716=CARTESIAN_POINT('Origin',(25.,0.,-25.));
#717=CARTESIAN_POINT('Origin',(-55.,25.,-3.5527136788005E-14));
#718=CARTESIAN_POINT('',(-126.5,25.,17.));
#719=CARTESIAN_POINT('Origin',(-125.,25.,17.));
#720=CARTESIAN_POINT('',(-126.5,25.,-17.));
#721=CARTESIAN_POINT('Origin',(-125.,25.,-17.));
#722=CARTESIAN_POINT('Origin',(-125.,0.,17.));
#723=CARTESIAN_POINT('',(-126.5,0.,17.));
#724=CARTESIAN_POINT('Origin',(-125.,0.,-17.));
#725=CARTESIAN_POINT('',(-126.5,0.,-17.));
#726=UNCERTAINTY_MEASURE_WITH_UNIT(LENGTH_MEASURE(0.01),#730,
'DISTANCE_ACCURACY_VALUE',
'Maximum model space distance between geometric entities at asserted c
onnectivities');
#727=UNCERTAINTY_MEASURE_WITH_UNIT(LENGTH_MEASURE(0.01),#730,
'DISTANCE_ACCURACY_VALUE',
'Maximum model space distance between geometric entities at asserted c
onnectivities');
#728=(
GEOMETRIC_REPRESENTATION_CONTEXT(3)
GLOBAL_UNCERTAINTY_ASSIGNED_CONTEXT((#726))
GLOBAL_UNIT_ASSIGNED_CONTEXT((#730,#732,#733))
REPRESENTATION_CONTEXT('','3D')
);
#729=(
GEOMETRIC_REPRESENTATION_CONTEXT(3)
GLOBAL_UNCERTAINTY_ASSIGNED_CONTEXT((#727))
GLOBAL_UNIT_ASSIGNED_CONTEXT((#730,#732,#733))
REPRESENTATION_CONTEXT('','3D')
);
#730=(
LENGTH_UNIT()
NAMED_UNIT(*)
SI_UNIT(.MILLI.,.METRE.)
);
#731=(
LENGTH_UNIT()
NAMED_UNIT(*)
SI_UNIT($,.METRE.)
);
#732=(
NAMED_UNIT(*)
PLANE_ANGLE_UNIT()
SI_UNIT($,.RADIAN.)
);
#733=(
NAMED_UNIT(*)
SI_UNIT($,.STERADIAN.)
SOLID_ANGLE_UNIT()
);
#734=SHAPE_DEFINITION_REPRESENTATION(#735,#736);
#735=PRODUCT_DEFINITION_SHAPE('',$,#738);
#736=SHAPE_REPRESENTATION('',(#418),#728);
#737=PRODUCT_DEFINITION_CONTEXT('part definition',#742,'design');
#738=PRODUCT_DEFINITION('Batterie','Batterie v2',#739,#737);
#739=PRODUCT_DEFINITION_FORMATION('',$,#744);
#740=PRODUCT_RELATED_PRODUCT_CATEGORY('Batterie v2','Batterie v2',(#744));
#741=APPLICATION_PROTOCOL_DEFINITION('international standard',
'automotive_design',2009,#742);
#742=APPLICATION_CONTEXT(
'Core Data for Automotive Mechanical Design Process');
#743=PRODUCT_CONTEXT('part definition',#742,'mechanical');
#744=PRODUCT('Batterie','Batterie v2',$,(#743));
#745=PRESENTATION_STYLE_ASSIGNMENT((#746));
#746=SURFACE_STYLE_USAGE(.BOTH.,#747);
#747=SURFACE_SIDE_STYLE('',(#748));
#748=SURFACE_STYLE_FILL_AREA(#749);
#749=FILL_AREA_STYLE('Steel - Satin',(#750));
#750=FILL_AREA_STYLE_COLOUR('Steel - Satin',#751);
#751=COLOUR_RGB('Steel - Satin',0.627450980392157,0.627450980392157,0.627450980392157);
ENDSEC;
END-ISO-10303-21;
